Coordinates
version=1
nRows=17
nColumns=40
inDegrees=yes

Units are S.I. units (second, meters, Newtons, ...)
Angles are in degrees.

endheader
time	pelvis_tilt	pelvis_list	pelvis_rotation	pelvis_tx	pelvis_ty	pelvis_tz	hip_flexion_r	hip_adduction_r	hip_rotation_r	knee_angle_r	knee_angle_r_beta	ankle_angle_r	subtalar_angle_r	mtp_angle_r	hip_flexion_l	hip_adduction_l	hip_rotation_l	knee_angle_l	knee_angle_l_beta	ankle_angle_l	subtalar_angle_l	mtp_angle_l	lumbar_extension	lumbar_bending	lumbar_rotation	arm_flex_r	arm_add_r	arm_rot_r	elbow_flex_r	pro_sup_r	wrist_flex_r	wrist_dev_r	arm_flex_l	arm_add_l	arm_rot_l	elbow_flex_l	pro_sup_l	wrist_flex_l	wrist_dev_l
     33.07000000	     -3.02576755	     -4.45467613	      4.20683785	      0.76547328	      0.91413653	      0.46878686	     17.74009866	      4.12763436	     -6.12273262	     29.64844773	     29.64844773	     16.10145630	    -10.80309869	     -0.28674459	     30.15484464	    -13.69615183	      2.97408610	     64.95914613	     64.95914613	     14.05800586	    -19.60475335	     23.05186272	    -13.19573980	      6.65970199	      0.10997364	     18.29381859	    -20.46714030	    -10.05898463	     66.65112174	     45.28639961	      0.00000000	      0.00000000	      9.67764634	     -7.89586595	     -3.14049933	     30.33692886	     45.72908531	      0.00000000	      0.00000000
     33.08721429	     -2.90638231	     -4.44997645	      4.72703828	      0.76599947	      0.91239842	      0.46965841	     17.64540400	      4.16901977	     -6.33905082	     30.47972047	     30.47972047	     16.65603816	    -11.36019760	     -0.52182917	     31.21357720	    -13.44997363	      2.71093002	     63.27834029	     63.27834029	     14.71787097	    -19.60040103	     23.03087469	    -13.34945261	      6.70329231	      0.52884949	     19.70062764	    -20.43242771	    -10.17387354	     67.53239221	     45.26786364	      0.00000000	      0.00000000	      8.55443486	     -7.67916166	     -3.06256701	     29.68738725	     45.70275555	      0.00000000	      0.00000000
     33.10442857	     -2.92604740	     -4.25150106	      5.27101388	      0.76633248	      0.91026892	      0.47051050	     17.86924555	      4.05233118	     -6.26853548	     31.65805366	     31.65805366	     17.32753589	    -12.44026048	     -0.50511449	     32.30389823	    -12.88041681	      2.45925229	     61.38213484	     61.38213484	     15.22287033	    -19.59823795	     22.98499017	    -13.39326639	      6.56590855	     -0.27063713	     21.66925509	    -19.05573026	    -10.07031000	     69.92335269	     45.19468661	      0.00000000	      0.00000000	      7.14985970	     -8.05565658	     -2.84209449	     28.07745592	     45.66320028	      0.00000000	      0.00000000
     33.12164286	     -2.87043902	     -4.12928495	      5.75107080	      0.76668914	      0.90851565	      0.47122595	     17.86950901	      4.00703316	     -6.30078727	     32.56874291	     32.56874291	     17.95449986	    -13.19772249	     -0.40759063	     33.12197545	    -12.34257514	      2.23496310	     59.18878450	     59.18878450	     15.53118151	    -19.57622921	     22.85094486	    -13.53881140	      6.52206278	     -0.29016016	     23.36623405	    -18.45575977	    -10.01216342	     71.58956348	     45.14784938	      0.00000000	      0.00000000	      6.03734052	     -8.12598932	     -2.66291516	     26.95610921	     45.63146498	      0.00000000	      0.00000000
     33.13885714	     -2.86728633	     -4.02660122	      6.20758641	      0.76701078	      0.90694912	      0.47174812	     17.83059166	      3.96480613	     -6.37689297	     33.29592324	     33.29592324	     18.59252995	    -13.75809362	     -0.12344261	     33.84129926	    -11.71733176	      2.16068315	     56.76215658	     56.76215658	     15.54415241	    -19.54693092	     22.49523611	    -13.63142793	      6.50485984	     -0.30194771	     25.05027873	    -17.85411913	     -9.92251689	     73.35039152	     45.09908683	      0.00000000	      0.00000000	      4.91731380	     -8.17996137	     -2.46461117	     25.91655573	     45.59864286	      0.00000000	      0.00000000
     33.15607143	     -2.89306645	     -3.87850407	      6.59853503	      0.76728500	      0.90572813	      0.47203536	     17.74076017	      3.84925241	     -6.46831969	     33.88346335	     33.88346335	     19.17929615	    -14.14301136	      0.14121138	     34.39534328	    -10.97168633	      2.17120235	     54.11688728	     54.11688728	     15.31711771	    -19.49686435	     22.01482442	    -13.69878378	      6.43099841	     -0.19620756	     26.67611078	    -17.31534559	     -9.83354699	     74.97151381	     45.05513582	      0.00000000	      0.00000000	      3.81243596	     -8.22114088	     -2.32466604	     25.24501854	     45.57053939	      0.00000000	      0.00000000
     33.17328571	     -3.02129470	     -3.82069396	      6.93402699	      0.76748061	      0.90482821	      0.47209499	     17.60664246	      3.80554990	     -6.60982686	     34.12448765	     34.12448765	     19.54786566	    -14.41653712	      0.13029797	     34.96853048	    -10.20722804	      2.44346728	     51.38752031	     51.38752031	     15.07390278	    -19.40884323	     22.09708154	    -13.60982689	      6.43017584	      0.42486468	     28.21027722	    -17.32477557	     -9.87472863	     75.84056236	     45.03579092	      0.00000000	      0.00000000	      2.94430169	     -8.10857961	     -2.30014307	     24.93625739	     45.55337706	      0.00000000	      0.00000000
     33.19050000	     -3.09288185	     -3.56437459	      7.18814260	      0.76774257	      0.90448028	      0.47194656	     17.36912515	      3.53236325	     -6.69326870	     34.40267459	     34.40267459	     20.27868861	    -14.29541884	      1.04092021	     35.09672221	     -9.32482802	      2.54351816	     48.19047903	     48.19047903	     13.57776498	    -19.30600815	     18.97253879	    -13.75061450	      6.24762877	      0.26032523	     29.75888656	    -16.55560295	     -9.30127060	     78.51569910	     44.95755535	      0.00000000	      0.00000000	      1.28808566	     -8.34319885	     -2.16369104	     25.72374067	     45.52096347	      0.00000000	      0.00000000
     33.20771429	     -3.30201078	     -3.37304780	      7.39151897	      0.76791774	      0.90452304	      0.47157324	     17.09163161	      3.31883838	     -6.76950669	     34.25527943	     34.25527943	     20.51912814	    -14.30096085	      1.06948283	     35.38307705	     -8.35178591	      3.05647707	     45.15347346	     45.15347346	     13.04365254	    -19.10006807	     18.98206914	    -13.62199711	      6.03097301	      0.67333162	     31.35668230	    -16.24248835	     -9.22793032	     79.60536827	     44.92908561	      0.00000000	      0.00000000	      0.40376194	     -8.31114229	     -2.12917795	     25.56798267	     45.50256704	      0.00000000	      0.00000000
     33.22492857	     -3.53368341	     -3.21293381	      7.55820135	      0.76817821	      0.90496853	      0.47091864	     16.74137289	      3.03095909	     -7.09228282	     33.95697927	     33.95697927	     20.79517492	    -13.73887657	      1.09157753	     35.46813452	     -7.52390391	      3.43949146	     41.84173020	     41.84173020	     11.49734886	    -18.74651455	     16.29207485	    -13.56995179	      5.98715302	      0.50300275	     33.03034404	    -15.45682929	     -8.54553238	     82.03991174	     44.84998927	      0.00000000	      0.00000000	     -1.25854498	     -8.43298253	     -2.12041574	     26.73807763	     45.47573077	      0.00000000	      0.00000000
     33.24214286	     -3.94096115	     -3.24214985	      7.64361850	      0.76834326	      0.90547390	      0.47028954	     16.58310559	      3.01527195	     -7.18049963	     33.55439215	     33.55439215	     20.81071285	    -13.65615111	      1.14793924	     35.85396510	     -6.90233497	      3.99567346	     38.88090310	     38.88090310	     11.22715288	    -17.75970757	     16.42657110	    -13.14498910	      6.03093268	      1.29850106	     34.55410087	    -15.51545478	     -8.51482304	     82.70634291	     44.83504762	      0.00000000	      0.00000000	     -1.88867821	     -8.32831919	     -2.12000886	     26.72622378	     45.46510323	      0.00000000	      0.00000000
     33.25935714	     -4.01275072	     -2.91374858	      7.68167419	      0.76903340	      0.90727074	      0.46939275	     15.65202094	      2.58531852	     -7.46217931	     32.57447811	     32.57447811	     20.80242495	    -12.79163237	      0.82299100	     35.15495371	     -6.15530591	      4.08052227	     34.90017583	     34.90017583	      8.21479609	    -17.26993948	     10.02056943	    -13.33984374	      5.65941937	      1.19635709	     36.03736408	    -15.19845803	     -6.94934273	     85.39098730	     44.74410218	      0.00000000	      0.00000000	     -4.16589695	     -8.61494802	     -1.96028589	     30.29215611	     45.41214594	      0.00000000	      0.00000000
     33.27657143	     -4.29953887	     -2.81131532	      7.69353783	      0.76962662	      0.90892646	      0.46850031	     14.98755729	      2.41302687	     -7.66961583	     31.55775787	     31.55775787	     20.71236904	    -12.15494039	      0.85152719	     35.02729175	     -5.63385143	      4.28958513	     31.77599282	     31.77599282	      7.94591490	    -15.62670700	      9.75367837	    -13.12616111	      5.50193362	      1.45829838	     37.66321943	    -14.65208071	     -6.61789624	     86.63289661	     44.70719567	      0.00000000	      0.00000000	     -4.94470048	     -8.56840455	     -1.80757467	     30.35910139	     45.38432693	      0.00000000	      0.00000000
     33.29378571	     -4.86449525	     -2.88751738	      7.66920433	      0.77005683	      0.91010966	      0.46756781	     14.72242500	      2.39826796	     -7.84048863	     30.64704419	     30.64704419	     20.53055337	    -11.63567398	      0.94505760	     35.29779485	     -5.29530299	      4.52427046	     28.97824925	     28.97824925	      7.77686002	    -13.95713720	      9.83023998	    -12.53699643	      5.49681984	      1.99122535	     39.35102610	    -14.52109214	     -6.42846017	     87.61155588	     44.67875424	      0.00000000	      0.00000000	     -5.51502150	     -8.42068878	     -1.75138871	     30.47327366	     45.36885047	      0.00000000	      0.00000000
     33.31100000	     -4.87300796	     -2.78512097	      7.59783657	      0.77135354	      0.91228873	      0.46643996	     13.46470996	      2.17131330	     -8.41252706	     29.18839909	     29.18839909	     20.26343353	    -10.18161844	      0.09491429	     34.56559454	     -5.10119276	      4.02959151	     25.86942163	     25.86942163	      6.77098416	    -11.86053056	      6.56579834	    -12.75278187	      5.33424058	      1.87490044	     40.69886896	    -14.39215090	     -4.25348740	     90.36721817	     44.57222466	      0.00000000	      0.00000000	     -7.59462484	     -8.77427814	     -1.01566515	     33.94373990	     45.26966476	      0.00000000	      0.00000000
     33.32821429	     -5.15454016	     -2.84087917	      7.52490290	      0.77254042	      0.91389896	      0.46530385	     12.60792807	      2.12721045	     -8.85043877	     27.85686500	     27.85686500	     20.07804564	     -9.00038468	     -0.11771439	     34.32943392	     -4.96414320	      3.76905139	     23.41145407	     23.41145407	      6.73920527	     -9.95457513	      6.19910219	    -12.50214795	      5.28896339	      1.95551737	     42.22834936	    -13.89406474	     -3.50362941	     91.79485830	     44.53153375	      0.00000000	      0.00000000	     -8.46273395	     -8.80158144	     -0.46689258	     34.62198365	     45.21208971	      0.00000000	      0.00000000
     33.34542857	     -5.38977868	     -2.94069628	      7.40307772	      0.77391755	      0.91530755	      0.46413714	     11.67957522	      2.18459896	     -9.17539151	     26.47283487	     26.47283487	     19.74375416	     -8.03623542	     -0.62512469	     34.01681285	     -4.90698211	      3.50558009	     21.25960710	     21.25960710	      6.62091205	     -8.42525164	      5.81242639	    -12.31131807	      5.23275834	      2.11591097	     43.69954475	    -13.75700346	     -2.30421335	     93.25866407	     44.52046291	      0.00000000	      0.00000000	     -9.68760860	     -9.11067433	      0.94975144	     36.55890873	     45.10592508	      0.00000000	      0.00000000
